# xmcd
#
# Track frame offsets:
#	150
#	15823
#	32973
#	52268
#	74928
#	96627
#	132776
#	158509
#	180739
#	208770
#	230765
#	254837
#	287802
#	320636
#	331837
#
# Disc length: 4627 seconds
#
# Revision: 0
# Processed by: cddbd v1.5.2PL0 Copyright (c) Steve Scherf et al.
# Submitted via: EZCDAudioConverter 1.3.4.1
#
DISCID=ec12110f
DTITLE=Manu Dibango - Afro-Soul Machine 1/2
DYEAR=2011
DGENRE=
TTITLE0=Bessoka (Version Courte)
TTITLE1=Lagos Go Slow
TTITLE2=Africa Boogie
TTITLE3=A La Claire Fontaine
TTITLE4=Waka Juju
TTITLE5=Super Kumba
TTITLE6=Manga Bolo
TTITLE7=Du Bush A Bush
TTITLE8=Blowin' Western Mind
TTITLE9=Mboa
TTITLE10=Gombo Sauce
TTITLE11=Negropolitaines
TTITLE12=Pour Une Poignée De CFA
TTITLE13=The Panther
TTITLE14=Mpuli Mwa Moni
EXTD=
EXTT0=
EXTT1=
EXTT2=
EXTT3=
EXTT4=
EXTT5=
EXTT6=
EXTT7=
EXTT8=
EXTT9=
EXTT10=
EXTT11=
EXTT12=
EXTT13=
EXTT14=
PLAYORDER=
